<svg xmlns="http://www.w3.org/2000/svg" viewBox="0 0 32 32" width="22" height="22"><circle cx="16" cy="16" r="16" fill="#333"/><path d="M16 10c-3.3 0-6 2.7-6 6 0 2.6 1.7 4.7 4 5.4v-2.1c-.7.1-1.1-.3-1.3-.7-.1-.3-.5-.7-.8-.8-.3-.1-.7-.4 0-.4.6 0 1 .6 1.1.8.7 1.1 1.8.8 2.2.6.1-.5.3-.8.5-1-1.8-.2-3.7-.9-3.7-4 0-.9.3-1.6.8-2.2-.1-.2-.3-1 .1-2.1 0 0 .7-.2 2.2.8.7-.2 1.5-.3 2.3-.3s1.6.1 2.3.3c1.5-1 2.2-.8 2.2-.8.4 1.1.2 1.9.1 2.1.5.6.8 1.3.8 2.2 0 3.1-1.9 3.8-3.7 4 .3.3.6.8.6 1.6v2.3c2.3-.7 4-2.8 4-5.4 0-3.3-2.7-6-6-6z" fill="#fff"/></svg> 