<svg xmlns="http://www.w3.org/2000/svg" viewBox="0 0 32 32" width="22" height="22"><circle cx="16" cy="16" r="16" fill="#1da1f2"/><path d="M25 11.1c-.6.3-1.2.5-1.8.6.7-.4 1.2-1 1.5-1.7-.6.4-1.3.7-2 .9-.6-.6-1.5-1-2.4-1-1.8 0-3.2 1.5-3.2 3.2 0 .3 0 .6.1.8-2.7-.1-5.1-1.4-6.7-3.4-.3.5-.5 1-.5 1.6 0 1.1.6 2.1 1.5 2.7-.5 0-1-.2-1.4-.4v.1c0 1.6 1.1 2.9 2.6 3.2-.3.1-.6.2-.9.2-.2 0-.4 0-.6-.1.4 1.3 1.6 2.2 3 2.2-1.1.9-2.5 1.4-4 1.4-.3 0-.6 0-.8-.1 1.4.9 3.1 1.5 4.9 1.5 5.9 0 9.1-4.9 9.1-9.1v-.4c.6-.4 1.1-1 1.5-1.6z" fill="#fff"/></svg> 